<svg xmlns="http://www.w3.org/2000/svg" width="600" height="600" viewBox="30 100 600 600">
<g id="button-E">
<circle cx="330" cy="400" r="246" fill="none" stroke="#FFF9FF" stroke-width="2" stroke-dasharray="32 14 8 12" stroke-dashoffset="0" opacity="0.7"/>
<circle cx="330" cy="400" r="231" fill="none" stroke="#C12BFF" stroke-width="7" stroke-dasharray="56 18 16 10" stroke-dashoffset="13" opacity="0.95"/>
<circle cx="330" cy="400" r="214" fill="none" stroke="#FF3FCB" stroke-width="2" stroke-dasharray="12 8 42 12" stroke-dashoffset="26" opacity="0.7"/>
<circle cx="330" cy="400" r="198" fill="none" stroke="#FFF9FF" stroke-width="10" stroke-dasharray="70 20 28 14" stroke-dashoffset="39" opacity="0.95"/>
<circle cx="330" cy="400" r="178" fill="none" stroke="#C12BFF" stroke-width="3" stroke-dasharray="24 9 10 8" stroke-dashoffset="52" opacity="0.7"/>
<circle cx="330" cy="400" r="162" fill="none" stroke="#FF3FCB" stroke-width="7" stroke-dasharray="44 13 18 11" stroke-dashoffset="65" opacity="0.95"/>
<circle cx="330" cy="400" r="145" fill="none" stroke="#FFF9FF" stroke-width="2" stroke-dasharray="9 7 30 10" stroke-dashoffset="78" opacity="0.7"/>
<circle cx="330" cy="400" r="128" fill="none" stroke="#744BFF" stroke-width="5" stroke-dasharray="34 10 14 8" stroke-dashoffset="91" opacity="0.95"/>
<circle cx="330" cy="400" r="111" fill="none" stroke="#FFF9FF" stroke-width="2" stroke-dasharray="18 8 6 10" stroke-dashoffset="104" opacity="0.7"/>
<polygon points="330.0,314.0 303.8,213.8 330.0,162.0 356.2,213.8" fill="none" stroke="#FFF9FF" stroke-width="3"/>
<polygon points="330.0,299.0 317.4,220.4 330.0,181.0 342.6,220.4" fill="none" stroke="#C12BFF" stroke-width="2"/>
<polygon points="416.0,400.0 516.2,373.8 568.0,400.0 516.2,426.2" fill="none" stroke="#FFF9FF" stroke-width="3"/>
<polygon points="431.0,400.0 509.6,387.4 549.0,400.0 509.6,412.6" fill="none" stroke="#FF3FCB" stroke-width="2"/>
<polygon points="330.0,486.0 356.2,586.2 330.0,638.0 303.8,586.2" fill="none" stroke="#FFF9FF" stroke-width="3"/>
<polygon points="330.0,501.0 342.6,579.6 330.0,619.0 317.4,579.6" fill="none" stroke="#C12BFF" stroke-width="2"/>
<polygon points="244.0,400.0 143.8,426.2 92.0,400.0 143.8,373.8" fill="none" stroke="#FFF9FF" stroke-width="3"/>
<polygon points="229.0,400.0 150.4,412.6 111.0,400.0 150.4,387.4" fill="none" stroke="#FF3FCB" stroke-width="2"/>
<line x1="330.00" y1="143.00" x2="330.00" y2="119.00" stroke="#FF3FCB" stroke-width="3" opacity="0.9" stroke-linecap="square"/>
<line x1="346.81" y1="143.55" x2="347.33" y2="135.57" stroke="#FFF9FF" stroke-width="1.5" opacity="0.9" stroke-linecap="square"/>
<line x1="363.55" y1="145.20" x2="364.59" y2="137.27" stroke="#FFF9FF" stroke-width="1.5" opacity="0.9" stroke-linecap="square"/>
<line x1="380.14" y1="147.94" x2="381.70" y2="140.09" stroke="#C12BFF" stroke-width="1.5" opacity="0.9" stroke-linecap="square"/>
<line x1="428.35" y1="162.56" x2="431.41" y2="155.17" stroke="#FF3FCB" stroke-width="1.5" opacity="0.9" stroke-linecap="square"/>
<line x1="443.67" y1="169.50" x2="447.21" y2="162.33" stroke="#FFF9FF" stroke-width="1.5" opacity="0.9" stroke-linecap="square"/>
<line x1="458.50" y1="177.43" x2="466.00" y2="164.44" stroke="#FFF9FF" stroke-width="1.5" opacity="0.9" stroke-linecap="square"/>
<line x1="472.78" y1="186.31" x2="477.23" y2="179.66" stroke="#C12BFF" stroke-width="1.5" opacity="0.9" stroke-linecap="square"/>
<line x1="486.45" y1="196.11" x2="491.32" y2="189.76" stroke="#FFF9FF" stroke-width="1.5" opacity="0.9" stroke-linecap="square"/>
<line x1="499.45" y1="206.78" x2="504.73" y2="200.76" stroke="#FFF9FF" stroke-width="1.5" opacity="0.9" stroke-linecap="square"/>
<line x1="507.48" y1="222.52" x2="524.45" y2="205.55" stroke="#FF3FCB" stroke-width="3" opacity="0.9" stroke-linecap="square"/>
<line x1="518.71" y1="234.50" x2="524.73" y2="229.23" stroke="#FFF9FF" stroke-width="1.5" opacity="0.9" stroke-linecap="square"/>
<line x1="529.13" y1="247.20" x2="535.48" y2="242.33" stroke="#FFF9FF" stroke-width="1.5" opacity="0.9" stroke-linecap="square"/>
<line x1="538.70" y1="260.55" x2="545.35" y2="256.11" stroke="#C12BFF" stroke-width="1.5" opacity="0.9" stroke-linecap="square"/>
<line x1="561.89" y1="303.95" x2="569.28" y2="300.88" stroke="#FF3FCB" stroke-width="1.5" opacity="0.9" stroke-linecap="square"/>
<line x1="567.68" y1="319.32" x2="575.25" y2="316.75" stroke="#FFF9FF" stroke-width="1.5" opacity="0.9" stroke-linecap="square"/>
<line x1="572.45" y1="335.04" x2="586.94" y2="331.15" stroke="#FFF9FF" stroke-width="1.5" opacity="0.9" stroke-linecap="square"/>
<line x1="576.18" y1="351.03" x2="584.02" y2="349.47" stroke="#C12BFF" stroke-width="1.5" opacity="0.9" stroke-linecap="square"/>
<line x1="578.85" y1="367.24" x2="586.78" y2="366.19" stroke="#FFF9FF" stroke-width="1.5" opacity="0.9" stroke-linecap="square"/>
<line x1="580.46" y1="383.58" x2="588.45" y2="383.06" stroke="#FFF9FF" stroke-width="1.5" opacity="0.9" stroke-linecap="square"/>
<line x1="587.00" y1="400.00" x2="611.00" y2="400.00" stroke="#FF3FCB" stroke-width="3" opacity="0.9" stroke-linecap="square"/>
<line x1="586.45" y1="416.81" x2="594.43" y2="417.33" stroke="#FFF9FF" stroke-width="1.5" opacity="0.9" stroke-linecap="square"/>
<line x1="584.80" y1="433.55" x2="592.73" y2="434.59" stroke="#FFF9FF" stroke-width="1.5" opacity="0.9" stroke-linecap="square"/>
<line x1="582.06" y1="450.14" x2="589.91" y2="451.70" stroke="#C12BFF" stroke-width="1.5" opacity="0.9" stroke-linecap="square"/>
<line x1="567.44" y1="498.35" x2="574.83" y2="501.41" stroke="#FF3FCB" stroke-width="1.5" opacity="0.9" stroke-linecap="square"/>
<line x1="560.50" y1="513.67" x2="567.67" y2="517.21" stroke="#FFF9FF" stroke-width="1.5" opacity="0.9" stroke-linecap="square"/>
<line x1="552.57" y1="528.50" x2="565.56" y2="536.00" stroke="#FFF9FF" stroke-width="1.5" opacity="0.9" stroke-linecap="square"/>
<line x1="543.69" y1="542.78" x2="550.34" y2="547.23" stroke="#C12BFF" stroke-width="1.5" opacity="0.9" stroke-linecap="square"/>
<line x1="533.89" y1="556.45" x2="540.24" y2="561.32" stroke="#FFF9FF" stroke-width="1.5" opacity="0.9" stroke-linecap="square"/>
<line x1="523.22" y1="569.45" x2="529.24" y2="574.73" stroke="#FFF9FF" stroke-width="1.5" opacity="0.9" stroke-linecap="square"/>
<line x1="507.48" y1="577.48" x2="524.45" y2="594.45" stroke="#FF3FCB" stroke-width="3" opacity="0.9" stroke-linecap="square"/>
<line x1="495.50" y1="588.71" x2="500.77" y2="594.73" stroke="#FFF9FF" stroke-width="1.5" opacity="0.9" stroke-linecap="square"/>
<line x1="482.80" y1="599.13" x2="487.67" y2="605.48" stroke="#FFF9FF" stroke-width="1.5" opacity="0.9" stroke-linecap="square"/>
<line x1="469.45" y1="608.70" x2="473.89" y2="615.35" stroke="#C12BFF" stroke-width="1.5" opacity="0.9" stroke-linecap="square"/>
<line x1="426.05" y1="631.89" x2="429.12" y2="639.28" stroke="#FF3FCB" stroke-width="1.5" opacity="0.9" stroke-linecap="square"/>
<line x1="410.68" y1="637.68" x2="413.25" y2="645.25" stroke="#FFF9FF" stroke-width="1.5" opacity="0.9" stroke-linecap="square"/>
<line x1="394.96" y1="642.45" x2="398.85" y2="656.94" stroke="#FFF9FF" stroke-width="1.5" opacity="0.9" stroke-linecap="square"/>
<line x1="378.97" y1="646.18" x2="380.53" y2="654.02" stroke="#C12BFF" stroke-width="1.5" opacity="0.9" stroke-linecap="square"/>
<line x1="362.76" y1="648.85" x2="363.81" y2="656.78" stroke="#FFF9FF" stroke-width="1.5" opacity="0.9" stroke-linecap="square"/>
<line x1="346.42" y1="650.46" x2="346.94" y2="658.45" stroke="#FFF9FF" stroke-width="1.5" opacity="0.9" stroke-linecap="square"/>
<line x1="330.00" y1="657.00" x2="330.00" y2="681.00" stroke="#FF3FCB" stroke-width="3" opacity="0.9" stroke-linecap="square"/>
<line x1="313.19" y1="656.45" x2="312.67" y2="664.43" stroke="#FFF9FF" stroke-width="1.5" opacity="0.9" stroke-linecap="square"/>
<line x1="296.45" y1="654.80" x2="295.41" y2="662.73" stroke="#FFF9FF" stroke-width="1.5" opacity="0.9" stroke-linecap="square"/>
<line x1="279.86" y1="652.06" x2="278.30" y2="659.91" stroke="#C12BFF" stroke-width="1.5" opacity="0.9" stroke-linecap="square"/>
<line x1="231.65" y1="637.44" x2="228.59" y2="644.83" stroke="#FF3FCB" stroke-width="1.5" opacity="0.9" stroke-linecap="square"/>
<line x1="216.33" y1="630.50" x2="212.79" y2="637.67" stroke="#FFF9FF" stroke-width="1.5" opacity="0.9" stroke-linecap="square"/>
<line x1="201.50" y1="622.57" x2="194.00" y2="635.56" stroke="#FFF9FF" stroke-width="1.5" opacity="0.9" stroke-linecap="square"/>
<line x1="187.22" y1="613.69" x2="182.77" y2="620.34" stroke="#C12BFF" stroke-width="1.5" opacity="0.9" stroke-linecap="square"/>
<line x1="173.55" y1="603.89" x2="168.68" y2="610.24" stroke="#FFF9FF" stroke-width="1.5" opacity="0.9" stroke-linecap="square"/>
<line x1="160.55" y1="593.22" x2="155.27" y2="599.24" stroke="#FFF9FF" stroke-width="1.5" opacity="0.9" stroke-linecap="square"/>
<line x1="152.52" y1="577.48" x2="135.55" y2="594.45" stroke="#FF3FCB" stroke-width="3" opacity="0.9" stroke-linecap="square"/>
<line x1="141.29" y1="565.50" x2="135.27" y2="570.77" stroke="#FFF9FF" stroke-width="1.5" opacity="0.9" stroke-linecap="square"/>
<line x1="130.87" y1="552.80" x2="124.52" y2="557.67" stroke="#FFF9FF" stroke-width="1.5" opacity="0.9" stroke-linecap="square"/>
<line x1="121.30" y1="539.45" x2="114.65" y2="543.89" stroke="#C12BFF" stroke-width="1.5" opacity="0.9" stroke-linecap="square"/>
<line x1="98.11" y1="496.05" x2="90.72" y2="499.12" stroke="#FF3FCB" stroke-width="1.5" opacity="0.9" stroke-linecap="square"/>
<line x1="92.32" y1="480.68" x2="84.75" y2="483.25" stroke="#FFF9FF" stroke-width="1.5" opacity="0.9" stroke-linecap="square"/>
<line x1="87.55" y1="464.96" x2="73.06" y2="468.85" stroke="#FFF9FF" stroke-width="1.5" opacity="0.9" stroke-linecap="square"/>
<line x1="83.82" y1="448.97" x2="75.98" y2="450.53" stroke="#C12BFF" stroke-width="1.5" opacity="0.9" stroke-linecap="square"/>
<line x1="81.15" y1="432.76" x2="73.22" y2="433.81" stroke="#FFF9FF" stroke-width="1.5" opacity="0.9" stroke-linecap="square"/>
<line x1="79.54" y1="416.42" x2="71.55" y2="416.94" stroke="#FFF9FF" stroke-width="1.5" opacity="0.9" stroke-linecap="square"/>
<line x1="73.00" y1="400.00" x2="49.00" y2="400.00" stroke="#FF3FCB" stroke-width="3" opacity="0.9" stroke-linecap="square"/>
<line x1="73.55" y1="383.19" x2="65.57" y2="382.67" stroke="#FFF9FF" stroke-width="1.5" opacity="0.9" stroke-linecap="square"/>
<line x1="75.20" y1="366.45" x2="67.27" y2="365.41" stroke="#FFF9FF" stroke-width="1.5" opacity="0.9" stroke-linecap="square"/>
<line x1="77.94" y1="349.86" x2="70.09" y2="348.30" stroke="#C12BFF" stroke-width="1.5" opacity="0.9" stroke-linecap="square"/>
<line x1="92.56" y1="301.65" x2="85.17" y2="298.59" stroke="#FF3FCB" stroke-width="1.5" opacity="0.9" stroke-linecap="square"/>
<line x1="99.50" y1="286.33" x2="92.33" y2="282.79" stroke="#FFF9FF" stroke-width="1.5" opacity="0.9" stroke-linecap="square"/>
<line x1="107.43" y1="271.50" x2="94.44" y2="264.00" stroke="#FFF9FF" stroke-width="1.5" opacity="0.9" stroke-linecap="square"/>
<line x1="116.31" y1="257.22" x2="109.66" y2="252.77" stroke="#C12BFF" stroke-width="1.5" opacity="0.9" stroke-linecap="square"/>
<line x1="126.11" y1="243.55" x2="119.76" y2="238.68" stroke="#FFF9FF" stroke-width="1.5" opacity="0.9" stroke-linecap="square"/>
<line x1="136.78" y1="230.55" x2="130.76" y2="225.27" stroke="#FFF9FF" stroke-width="1.5" opacity="0.9" stroke-linecap="square"/>
<line x1="152.52" y1="222.52" x2="135.55" y2="205.55" stroke="#FF3FCB" stroke-width="3" opacity="0.9" stroke-linecap="square"/>
<line x1="164.50" y1="211.29" x2="159.23" y2="205.27" stroke="#FFF9FF" stroke-width="1.5" opacity="0.9" stroke-linecap="square"/>
<line x1="177.20" y1="200.87" x2="172.33" y2="194.52" stroke="#FFF9FF" stroke-width="1.5" opacity="0.9" stroke-linecap="square"/>
<line x1="190.55" y1="191.30" x2="186.11" y2="184.65" stroke="#C12BFF" stroke-width="1.5" opacity="0.9" stroke-linecap="square"/>
<line x1="233.95" y1="168.11" x2="230.88" y2="160.72" stroke="#FF3FCB" stroke-width="1.5" opacity="0.9" stroke-linecap="square"/>
<line x1="249.32" y1="162.32" x2="246.75" y2="154.75" stroke="#FFF9FF" stroke-width="1.5" opacity="0.9" stroke-linecap="square"/>
<line x1="265.04" y1="157.55" x2="261.15" y2="143.06" stroke="#FFF9FF" stroke-width="1.5" opacity="0.9" stroke-linecap="square"/>
<line x1="281.03" y1="153.82" x2="279.47" y2="145.98" stroke="#C12BFF" stroke-width="1.5" opacity="0.9" stroke-linecap="square"/>
<line x1="297.24" y1="151.15" x2="296.19" y2="143.22" stroke="#FFF9FF" stroke-width="1.5" opacity="0.9" stroke-linecap="square"/>
<line x1="313.58" y1="149.54" x2="313.06" y2="141.55" stroke="#FFF9FF" stroke-width="1.5" opacity="0.9" stroke-linecap="square"/>
<path d="M348.3,251.1 L368.5,245.7 A159,159 0 0 1 418.9,268.2" fill="none" stroke="#FFF9FF" stroke-width="1.2" opacity=".88"/>
<rect x="415.9" y="265.2" width="6" height="6" fill="#FFF9FF" transform="rotate(45 418.9 268.2)"/>
<path d="M353.1,239.7 L374.8,235.0 A171,171 0 0 1 423.6,256.9" fill="none" stroke="#C12BFF" stroke-width="2.2" opacity=".88"/>
<rect x="420.6" y="253.9" width="6" height="6" fill="#C12BFF" transform="rotate(45 423.6 256.9)"/>
<path d="M358.4,228.3 L381.7,224.4 A183,183 0 0 1 428.1,245.5" fill="none" stroke="#FF3FCB" stroke-width="1.2" opacity=".88"/>
<rect x="425.1" y="242.5" width="6" height="6" fill="#FF3FCB" transform="rotate(45 428.1 245.5)"/>
<path d="M364.2,217.2 L389.0,214.1 A195,195 0 0 1 432.2,233.9" fill="none" stroke="#FFF9FF" stroke-width="2.2" opacity=".88"/>
<rect x="429.2" y="230.9" width="6" height="6" fill="#FFF9FF" transform="rotate(45 432.2 233.9)"/>
<path d="M370.5,206.2 L396.7,204.0 A207,207 0 0 1 436.0,222.2" fill="none" stroke="#744BFF" stroke-width="1.2" opacity=".88"/>
<rect x="433.0" y="219.2" width="6" height="6" fill="#744BFF" transform="rotate(45 436.0 222.2)"/>
<path d="M448.2,307.7 L466.3,318.1 A159,159 0 0 1 486.1,369.7" fill="none" stroke="#FFF9FF" stroke-width="1.2" opacity=".88"/>
<rect x="483.1" y="366.7" width="6" height="6" fill="#FFF9FF" transform="rotate(45 486.1 369.7)"/>
<path d="M459.7,303.0 L478.4,315.0 A171,171 0 0 1 497.4,365.0" fill="none" stroke="#C12BFF" stroke-width="2.2" opacity=".88"/>
<rect x="494.4" y="362.0" width="6" height="6" fill="#C12BFF" transform="rotate(45 497.4 365.0)"/>
<path d="M471.5,298.7 L490.7,312.4 A183,183 0 0 1 508.6,360.1" fill="none" stroke="#FF3FCB" stroke-width="1.2" opacity=".88"/>
<rect x="505.6" y="357.1" width="6" height="6" fill="#FF3FCB" transform="rotate(45 508.6 360.1)"/>
<path d="M483.5,294.9 L503.1,310.3 A195,195 0 0 1 519.7,354.8" fill="none" stroke="#FFF9FF" stroke-width="2.2" opacity=".88"/>
<rect x="516.7" y="351.8" width="6" height="6" fill="#FFF9FF" transform="rotate(45 519.7 354.8)"/>
<path d="M495.7,291.6 L515.7,308.6 A207,207 0 0 1 530.7,349.2" fill="none" stroke="#744BFF" stroke-width="1.2" opacity=".88"/>
<rect x="527.7" y="346.2" width="6" height="6" fill="#744BFF" transform="rotate(45 530.7 349.2)"/>
<path d="M478.9,418.3 L484.3,438.5 A159,159 0 0 1 461.8,488.9" fill="none" stroke="#FFF9FF" stroke-width="1.2" opacity=".88"/>
<rect x="458.8" y="485.9" width="6" height="6" fill="#FFF9FF" transform="rotate(45 461.8 488.9)"/>
<path d="M490.3,423.1 L495.0,444.8 A171,171 0 0 1 473.1,493.6" fill="none" stroke="#C12BFF" stroke-width="2.2" opacity=".88"/>
<rect x="470.1" y="490.6" width="6" height="6" fill="#C12BFF" transform="rotate(45 473.1 493.6)"/>
<path d="M501.7,428.4 L505.6,451.7 A183,183 0 0 1 484.5,498.1" fill="none" stroke="#FF3FCB" stroke-width="1.2" opacity=".88"/>
<rect x="481.5" y="495.1" width="6" height="6" fill="#FF3FCB" transform="rotate(45 484.5 498.1)"/>
<path d="M512.8,434.2 L515.9,459.0 A195,195 0 0 1 496.1,502.2" fill="none" stroke="#FFF9FF" stroke-width="2.2" opacity=".88"/>
<rect x="493.1" y="499.2" width="6" height="6" fill="#FFF9FF" transform="rotate(45 496.1 502.2)"/>
<path d="M523.8,440.5 L526.0,466.7 A207,207 0 0 1 507.8,506.0" fill="none" stroke="#744BFF" stroke-width="1.2" opacity=".88"/>
<rect x="504.8" y="503.0" width="6" height="6" fill="#744BFF" transform="rotate(45 507.8 506.0)"/>
<path d="M422.3,518.2 L411.9,536.3 A159,159 0 0 1 360.3,556.1" fill="none" stroke="#FFF9FF" stroke-width="1.2" opacity=".88"/>
<rect x="357.3" y="553.1" width="6" height="6" fill="#FFF9FF" transform="rotate(45 360.3 556.1)"/>
<path d="M427.0,529.7 L415.0,548.4 A171,171 0 0 1 365.0,567.4" fill="none" stroke="#C12BFF" stroke-width="2.2" opacity=".88"/>
<rect x="362.0" y="564.4" width="6" height="6" fill="#C12BFF" transform="rotate(45 365.0 567.4)"/>
<path d="M431.3,541.5 L417.6,560.7 A183,183 0 0 1 369.9,578.6" fill="none" stroke="#FF3FCB" stroke-width="1.2" opacity=".88"/>
<rect x="366.9" y="575.6" width="6" height="6" fill="#FF3FCB" transform="rotate(45 369.9 578.6)"/>
<path d="M435.1,553.5 L419.7,573.1 A195,195 0 0 1 375.2,589.7" fill="none" stroke="#FFF9FF" stroke-width="2.2" opacity=".88"/>
<rect x="372.2" y="586.7" width="6" height="6" fill="#FFF9FF" transform="rotate(45 375.2 589.7)"/>
<path d="M438.4,565.7 L421.4,585.7 A207,207 0 0 1 380.8,600.7" fill="none" stroke="#744BFF" stroke-width="1.2" opacity=".88"/>
<rect x="377.8" y="597.7" width="6" height="6" fill="#744BFF" transform="rotate(45 380.8 600.7)"/>
<path d="M311.7,548.9 L291.5,554.3 A159,159 0 0 1 241.1,531.8" fill="none" stroke="#FFF9FF" stroke-width="1.2" opacity=".88"/>
<rect x="238.1" y="528.8" width="6" height="6" fill="#FFF9FF" transform="rotate(45 241.1 531.8)"/>
<path d="M306.9,560.3 L285.2,565.0 A171,171 0 0 1 236.4,543.1" fill="none" stroke="#C12BFF" stroke-width="2.2" opacity=".88"/>
<rect x="233.4" y="540.1" width="6" height="6" fill="#C12BFF" transform="rotate(45 236.4 543.1)"/>
<path d="M301.6,571.7 L278.3,575.6 A183,183 0 0 1 231.9,554.5" fill="none" stroke="#FF3FCB" stroke-width="1.2" opacity=".88"/>
<rect x="228.9" y="551.5" width="6" height="6" fill="#FF3FCB" transform="rotate(45 231.9 554.5)"/>
<path d="M295.8,582.8 L271.0,585.9 A195,195 0 0 1 227.8,566.1" fill="none" stroke="#FFF9FF" stroke-width="2.2" opacity=".88"/>
<rect x="224.8" y="563.1" width="6" height="6" fill="#FFF9FF" transform="rotate(45 227.8 566.1)"/>
<path d="M289.5,593.8 L263.3,596.0 A207,207 0 0 1 224.0,577.8" fill="none" stroke="#744BFF" stroke-width="1.2" opacity=".88"/>
<rect x="221.0" y="574.8" width="6" height="6" fill="#744BFF" transform="rotate(45 224.0 577.8)"/>
<path d="M211.8,492.3 L193.7,481.9 A159,159 0 0 1 173.9,430.3" fill="none" stroke="#FFF9FF" stroke-width="1.2" opacity=".88"/>
<rect x="170.9" y="427.3" width="6" height="6" fill="#FFF9FF" transform="rotate(45 173.9 430.3)"/>
<path d="M200.3,497.0 L181.6,485.0 A171,171 0 0 1 162.6,435.0" fill="none" stroke="#C12BFF" stroke-width="2.2" opacity=".88"/>
<rect x="159.6" y="432.0" width="6" height="6" fill="#C12BFF" transform="rotate(45 162.6 435.0)"/>
<path d="M188.5,501.3 L169.3,487.6 A183,183 0 0 1 151.4,439.9" fill="none" stroke="#FF3FCB" stroke-width="1.2" opacity=".88"/>
<rect x="148.4" y="436.9" width="6" height="6" fill="#FF3FCB" transform="rotate(45 151.4 439.9)"/>
<path d="M176.5,505.1 L156.9,489.7 A195,195 0 0 1 140.3,445.2" fill="none" stroke="#FFF9FF" stroke-width="2.2" opacity=".88"/>
<rect x="137.3" y="442.2" width="6" height="6" fill="#FFF9FF" transform="rotate(45 140.3 445.2)"/>
<path d="M164.3,508.4 L144.3,491.4 A207,207 0 0 1 129.3,450.8" fill="none" stroke="#744BFF" stroke-width="1.2" opacity=".88"/>
<rect x="126.3" y="447.8" width="6" height="6" fill="#744BFF" transform="rotate(45 129.3 450.8)"/>
<path d="M181.1,381.7 L175.7,361.5 A159,159 0 0 1 198.2,311.1" fill="none" stroke="#FFF9FF" stroke-width="1.2" opacity=".88"/>
<rect x="195.2" y="308.1" width="6" height="6" fill="#FFF9FF" transform="rotate(45 198.2 311.1)"/>
<path d="M169.7,376.9 L165.0,355.2 A171,171 0 0 1 186.9,306.4" fill="none" stroke="#C12BFF" stroke-width="2.2" opacity=".88"/>
<rect x="183.9" y="303.4" width="6" height="6" fill="#C12BFF" transform="rotate(45 186.9 306.4)"/>
<path d="M158.3,371.6 L154.4,348.3 A183,183 0 0 1 175.5,301.9" fill="none" stroke="#FF3FCB" stroke-width="1.2" opacity=".88"/>
<rect x="172.5" y="298.9" width="6" height="6" fill="#FF3FCB" transform="rotate(45 175.5 301.9)"/>
<path d="M147.2,365.8 L144.1,341.0 A195,195 0 0 1 163.9,297.8" fill="none" stroke="#FFF9FF" stroke-width="2.2" opacity=".88"/>
<rect x="160.9" y="294.8" width="6" height="6" fill="#FFF9FF" transform="rotate(45 163.9 297.8)"/>
<path d="M136.2,359.5 L134.0,333.3 A207,207 0 0 1 152.2,294.0" fill="none" stroke="#744BFF" stroke-width="1.2" opacity=".88"/>
<rect x="149.2" y="291.0" width="6" height="6" fill="#744BFF" transform="rotate(45 152.2 294.0)"/>
<path d="M237.7,281.8 L248.1,263.7 A159,159 0 0 1 299.7,243.9" fill="none" stroke="#FFF9FF" stroke-width="1.2" opacity=".88"/>
<rect x="296.7" y="240.9" width="6" height="6" fill="#FFF9FF" transform="rotate(45 299.7 243.9)"/>
<path d="M233.0,270.3 L245.0,251.6 A171,171 0 0 1 295.0,232.6" fill="none" stroke="#C12BFF" stroke-width="2.2" opacity=".88"/>
<rect x="292.0" y="229.6" width="6" height="6" fill="#C12BFF" transform="rotate(45 295.0 232.6)"/>
<path d="M228.7,258.5 L242.4,239.3 A183,183 0 0 1 290.1,221.4" fill="none" stroke="#FF3FCB" stroke-width="1.2" opacity=".88"/>
<rect x="287.1" y="218.4" width="6" height="6" fill="#FF3FCB" transform="rotate(45 290.1 221.4)"/>
<path d="M224.9,246.5 L240.3,226.9 A195,195 0 0 1 284.8,210.3" fill="none" stroke="#FFF9FF" stroke-width="2.2" opacity=".88"/>
<rect x="281.8" y="207.3" width="6" height="6" fill="#FFF9FF" transform="rotate(45 284.8 210.3)"/>
<path d="M221.6,234.3 L238.6,214.3 A207,207 0 0 1 279.2,199.3" fill="none" stroke="#744BFF" stroke-width="1.2" opacity=".88"/>
<rect x="276.2" y="196.3" width="6" height="6" fill="#744BFF" transform="rotate(45 279.2 199.3)"/>
<polyline points="312.3,197.8 311.3,185.8 348.7,185.8 347.7,197.8" fill="none" stroke="#C12BFF" stroke-width="1.5" opacity=".85"/>
<polyline points="303.9,187.6 302.5,175.7 357.5,175.7 356.1,187.6" fill="none" stroke="#FFF9FF" stroke-width="1.5" opacity=".85"/>
<polyline points="294.8,177.8 292.9,165.9 367.1,165.9 365.2,177.8" fill="none" stroke="#FF3FCB" stroke-width="1.5" opacity=".85"/>
<polyline points="285.0,168.3 282.7,156.6 377.3,156.6 375.0,168.3" fill="none" stroke="#C12BFF" stroke-width="2.5" opacity=".85"/>
<polyline points="460.5,244.5 468.2,235.3 494.7,261.8 485.5,269.5" fill="none" stroke="#FF3FCB" stroke-width="1.5" opacity=".85"/>
<polyline points="461.8,231.4 469.1,221.9 508.1,260.9 498.6,268.2" fill="none" stroke="#FFF9FF" stroke-width="1.5" opacity=".85"/>
<polyline points="462.3,218.0 469.3,208.3 521.7,260.7 512.0,267.7" fill="none" stroke="#C12BFF" stroke-width="1.5" opacity=".85"/>
<polyline points="462.0,204.3 468.7,194.4 535.6,261.3 525.7,268.0" fill="none" stroke="#FFF9FF" stroke-width="2.5" opacity=".85"/>
<polyline points="532.2,382.3 544.2,381.3 544.2,418.7 532.2,417.7" fill="none" stroke="#FF3FCB" stroke-width="1.5" opacity=".85"/>
<polyline points="542.4,373.9 554.3,372.5 554.3,427.5 542.4,426.1" fill="none" stroke="#C12BFF" stroke-width="1.5" opacity=".85"/>
<polyline points="552.2,364.8 564.1,362.9 564.1,437.1 552.2,435.2" fill="none" stroke="#FF3FCB" stroke-width="1.5" opacity=".85"/>
<polyline points="561.7,355.0 573.4,352.7 573.4,447.3 561.7,445.0" fill="none" stroke="#FFF9FF" stroke-width="2.5" opacity=".85"/>
<polyline points="485.5,530.5 494.7,538.2 468.2,564.7 460.5,555.5" fill="none" stroke="#C12BFF" stroke-width="1.5" opacity=".85"/>
<polyline points="498.6,531.8 508.1,539.1 469.1,578.1 461.8,568.6" fill="none" stroke="#FFF9FF" stroke-width="1.5" opacity=".85"/>
<polyline points="512.0,532.3 521.7,539.3 469.3,591.7 462.3,582.0" fill="none" stroke="#FF3FCB" stroke-width="1.5" opacity=".85"/>
<polyline points="525.7,532.0 535.6,538.7 468.7,605.6 462.0,595.7" fill="none" stroke="#C12BFF" stroke-width="2.5" opacity=".85"/>
<polyline points="347.7,602.2 348.7,614.2 311.3,614.2 312.3,602.2" fill="none" stroke="#FF3FCB" stroke-width="1.5" opacity=".85"/>
<polyline points="356.1,612.4 357.5,624.3 302.5,624.3 303.9,612.4" fill="none" stroke="#FFF9FF" stroke-width="1.5" opacity=".85"/>
<polyline points="365.2,622.2 367.1,634.1 292.9,634.1 294.8,622.2" fill="none" stroke="#C12BFF" stroke-width="1.5" opacity=".85"/>
<polyline points="375.0,631.7 377.3,643.4 282.7,643.4 285.0,631.7" fill="none" stroke="#FFF9FF" stroke-width="2.5" opacity=".85"/>
<polyline points="199.5,555.5 191.8,564.7 165.3,538.2 174.5,530.5" fill="none" stroke="#FF3FCB" stroke-width="1.5" opacity=".85"/>
<polyline points="198.2,568.6 190.9,578.1 151.9,539.1 161.4,531.8" fill="none" stroke="#C12BFF" stroke-width="1.5" opacity=".85"/>
<polyline points="197.7,582.0 190.7,591.7 138.3,539.3 148.0,532.3" fill="none" stroke="#FF3FCB" stroke-width="1.5" opacity=".85"/>
<polyline points="198.0,595.7 191.3,605.6 124.4,538.7 134.3,532.0" fill="none" stroke="#FFF9FF" stroke-width="2.5" opacity=".85"/>
<polyline points="127.8,417.7 115.8,418.7 115.8,381.3 127.8,382.3" fill="none" stroke="#C12BFF" stroke-width="1.5" opacity=".85"/>
<polyline points="117.6,426.1 105.7,427.5 105.7,372.5 117.6,373.9" fill="none" stroke="#FFF9FF" stroke-width="1.5" opacity=".85"/>
<polyline points="107.8,435.2 95.9,437.1 95.9,362.9 107.8,364.8" fill="none" stroke="#FF3FCB" stroke-width="1.5" opacity=".85"/>
<polyline points="98.3,445.0 86.6,447.3 86.6,352.7 98.3,355.0" fill="none" stroke="#C12BFF" stroke-width="2.5" opacity=".85"/>
<polyline points="174.5,269.5 165.3,261.8 191.8,235.3 199.5,244.5" fill="none" stroke="#FF3FCB" stroke-width="1.5" opacity=".85"/>
<polyline points="161.4,268.2 151.9,260.9 190.9,221.9 198.2,231.4" fill="none" stroke="#FFF9FF" stroke-width="1.5" opacity=".85"/>
<polyline points="148.0,267.7 138.3,260.7 190.7,208.3 197.7,218.0" fill="none" stroke="#C12BFF" stroke-width="1.5" opacity=".85"/>
<polyline points="134.3,268.0 124.4,261.3 191.3,194.4 198.0,204.3" fill="none" stroke="#FFF9FF" stroke-width="2.5" opacity=".85"/>
<line x1="354.33" y1="309.20" x2="358.21" y2="294.71" stroke="#FFF9FF" stroke-width="1" opacity="0.9" stroke-linecap="square"/>
<line x1="365.97" y1="313.16" x2="372.86" y2="296.53" stroke="#FFF9FF" stroke-width="1" opacity="0.9" stroke-linecap="square"/>
<line x1="377.00" y1="318.59" x2="381.50" y2="310.80" stroke="#FFF9FF" stroke-width="1" opacity="0.9" stroke-linecap="square"/>
<line x1="387.22" y1="325.42" x2="394.53" y2="315.90" stroke="#C12BFF" stroke-width="1" opacity="0.9" stroke-linecap="square"/>
<line x1="396.47" y1="333.53" x2="407.07" y2="322.93" stroke="#FFF9FF" stroke-width="2" opacity="0.9" stroke-linecap="square"/>
<line x1="404.58" y1="342.78" x2="418.86" y2="331.82" stroke="#FFF9FF" stroke-width="1" opacity="0.9" stroke-linecap="square"/>
<line x1="411.41" y1="353.00" x2="419.20" y2="348.50" stroke="#FFF9FF" stroke-width="1" opacity="0.9" stroke-linecap="square"/>
<line x1="423.20" y1="387.73" x2="441.04" y2="385.38" stroke="#FFF9FF" stroke-width="1" opacity="0.9" stroke-linecap="square"/>
<line x1="424.00" y1="400.00" x2="433.00" y2="400.00" stroke="#FFF9FF" stroke-width="2" opacity="0.9" stroke-linecap="square"/>
<line x1="423.20" y1="412.27" x2="435.09" y2="413.84" stroke="#FFF9FF" stroke-width="1" opacity="0.9" stroke-linecap="square"/>
<line x1="420.80" y1="424.33" x2="435.29" y2="428.21" stroke="#FFF9FF" stroke-width="1" opacity="0.9" stroke-linecap="square"/>
<line x1="416.84" y1="435.97" x2="433.47" y2="442.86" stroke="#C12BFF" stroke-width="1" opacity="0.9" stroke-linecap="square"/>
<line x1="411.41" y1="447.00" x2="419.20" y2="451.50" stroke="#FFF9FF" stroke-width="1" opacity="0.9" stroke-linecap="square"/>
<line x1="404.58" y1="457.22" x2="414.10" y2="464.53" stroke="#FFF9FF" stroke-width="1" opacity="0.9" stroke-linecap="square"/>
<line x1="377.00" y1="481.41" x2="381.50" y2="489.20" stroke="#C12BFF" stroke-width="1" opacity="0.9" stroke-linecap="square"/>
<line x1="365.97" y1="486.84" x2="370.56" y2="497.93" stroke="#FFF9FF" stroke-width="1" opacity="0.9" stroke-linecap="square"/>
<line x1="354.33" y1="490.80" x2="358.21" y2="505.29" stroke="#FFF9FF" stroke-width="1" opacity="0.9" stroke-linecap="square"/>
<line x1="342.27" y1="493.20" x2="344.62" y2="511.04" stroke="#FFF9FF" stroke-width="1" opacity="0.9" stroke-linecap="square"/>
<line x1="330.00" y1="494.00" x2="330.00" y2="503.00" stroke="#FFF9FF" stroke-width="2" opacity="0.9" stroke-linecap="square"/>
<line x1="317.73" y1="493.20" x2="316.16" y2="505.09" stroke="#C12BFF" stroke-width="1" opacity="0.9" stroke-linecap="square"/>
<line x1="305.67" y1="490.80" x2="301.79" y2="505.29" stroke="#FFF9FF" stroke-width="1" opacity="0.9" stroke-linecap="square"/>
<line x1="272.78" y1="474.58" x2="265.47" y2="484.10" stroke="#FFF9FF" stroke-width="1" opacity="0.9" stroke-linecap="square"/>
<line x1="263.53" y1="466.47" x2="252.93" y2="477.07" stroke="#C12BFF" stroke-width="2" opacity="0.9" stroke-linecap="square"/>
<line x1="255.42" y1="457.22" x2="241.14" y2="468.18" stroke="#FFF9FF" stroke-width="1" opacity="0.9" stroke-linecap="square"/>
<line x1="248.59" y1="447.00" x2="240.80" y2="451.50" stroke="#FFF9FF" stroke-width="1" opacity="0.9" stroke-linecap="square"/>
<line x1="243.16" y1="435.97" x2="232.07" y2="440.56" stroke="#FFF9FF" stroke-width="1" opacity="0.9" stroke-linecap="square"/>
<line x1="239.20" y1="424.33" x2="224.71" y2="428.21" stroke="#FFF9FF" stroke-width="1" opacity="0.9" stroke-linecap="square"/>
<line x1="236.80" y1="412.27" x2="218.96" y2="414.62" stroke="#C12BFF" stroke-width="1" opacity="0.9" stroke-linecap="square"/>
<line x1="239.20" y1="375.67" x2="224.71" y2="371.79" stroke="#FFF9FF" stroke-width="1" opacity="0.9" stroke-linecap="square"/>
<line x1="243.16" y1="364.03" x2="226.53" y2="357.14" stroke="#FFF9FF" stroke-width="1" opacity="0.9" stroke-linecap="square"/>
<line x1="248.59" y1="353.00" x2="240.80" y2="348.50" stroke="#C12BFF" stroke-width="1" opacity="0.9" stroke-linecap="square"/>
<line x1="255.42" y1="342.78" x2="245.90" y2="335.47" stroke="#FFF9FF" stroke-width="1" opacity="0.9" stroke-linecap="square"/>
<line x1="263.53" y1="333.53" x2="252.93" y2="322.93" stroke="#FFF9FF" stroke-width="2" opacity="0.9" stroke-linecap="square"/>
<line x1="272.78" y1="325.42" x2="261.82" y2="311.14" stroke="#FFF9FF" stroke-width="1" opacity="0.9" stroke-linecap="square"/>
<line x1="283.00" y1="318.59" x2="278.50" y2="310.80" stroke="#FFF9FF" stroke-width="1" opacity="0.9" stroke-linecap="square"/>
<line x1="317.73" y1="306.80" x2="315.38" y2="288.96" stroke="#FFF9FF" stroke-width="1" opacity="0.9" stroke-linecap="square"/>
<rect x="418.9" y="295.1" width="16" height="16" fill="none" stroke="#FF3FCB" stroke-width="3" transform="rotate(45 426.9 303.1)"/>
<rect x="418.9" y="488.9" width="16" height="16" fill="none" stroke="#FF3FCB" stroke-width="3" transform="rotate(45 426.9 496.9)"/>
<rect x="225.1" y="488.9" width="16" height="16" fill="none" stroke="#FF3FCB" stroke-width="3" transform="rotate(45 233.1 496.9)"/>
<rect x="225.1" y="295.1" width="16" height="16" fill="none" stroke="#FF3FCB" stroke-width="3" transform="rotate(45 233.1 303.1)"/>
<circle cx="330" cy="400" r="88" fill="none" stroke="#FFF9FF" stroke-width="5"/>
<circle cx="330" cy="400" r="78" fill="none" stroke="#C12BFF" stroke-width="3" stroke-dasharray="42 12 8 10"/>
<circle cx="330" cy="400" r="68" fill="none" stroke="#FF3FCB" stroke-width="1.5" stroke-dasharray="16 7"/>
<text x="330" y="429" text-anchor="middle" font-family="Arial, sans-serif" font-weight="900" font-size="88" fill="#FFF9FF" stroke="#C12BFF" stroke-width="2">E</text>
</g>

</svg>