<svg xmlns="http://www.w3.org/2000/svg" width="600" height="600" viewBox="570 100 600 600">

<g id="button-R">
<circle cx="870" cy="400" r="246" fill="none" stroke="#F7FDFF" stroke-width="2" stroke-dasharray="32 14 8 12" stroke-dashoffset="0" opacity="0.7"/>
<circle cx="870" cy="400" r="231" fill="none" stroke="#00D9FF" stroke-width="7" stroke-dasharray="56 18 16 10" stroke-dashoffset="13" opacity="0.95"/>
<circle cx="870" cy="400" r="214" fill="none" stroke="#437CFF" stroke-width="2" stroke-dasharray="12 8 42 12" stroke-dashoffset="26" opacity="0.7"/>
<circle cx="870" cy="400" r="198" fill="none" stroke="#F7FDFF" stroke-width="10" stroke-dasharray="70 20 28 14" stroke-dashoffset="39" opacity="0.95"/>
<circle cx="870" cy="400" r="178" fill="none" stroke="#00D9FF" stroke-width="3" stroke-dasharray="24 9 10 8" stroke-dashoffset="52" opacity="0.7"/>
<circle cx="870" cy="400" r="162" fill="none" stroke="#437CFF" stroke-width="7" stroke-dasharray="44 13 18 11" stroke-dashoffset="65" opacity="0.95"/>
<circle cx="870" cy="400" r="145" fill="none" stroke="#F7FDFF" stroke-width="2" stroke-dasharray="9 7 30 10" stroke-dashoffset="78" opacity="0.7"/>
<circle cx="870" cy="400" r="128" fill="none" stroke="#8D56FF" stroke-width="5" stroke-dasharray="34 10 14 8" stroke-dashoffset="91" opacity="0.95"/>
<circle cx="870" cy="400" r="111" fill="none" stroke="#F7FDFF" stroke-width="2" stroke-dasharray="18 8 6 10" stroke-dashoffset="104" opacity="0.7"/>
<polygon points="870.0,314.0 843.8,213.8 870.0,162.0 896.2,213.8" fill="none" stroke="#F7FDFF" stroke-width="3"/>
<polygon points="870.0,299.0 857.4,220.4 870.0,181.0 882.6,220.4" fill="none" stroke="#00D9FF" stroke-width="2"/>
<polygon points="956.0,400.0 1056.2,373.8 1108.0,400.0 1056.2,426.2" fill="none" stroke="#F7FDFF" stroke-width="3"/>
<polygon points="971.0,400.0 1049.6,387.4 1089.0,400.0 1049.6,412.6" fill="none" stroke="#437CFF" stroke-width="2"/>
<polygon points="870.0,486.0 896.2,586.2 870.0,638.0 843.8,586.2" fill="none" stroke="#F7FDFF" stroke-width="3"/>
<polygon points="870.0,501.0 882.6,579.6 870.0,619.0 857.4,579.6" fill="none" stroke="#00D9FF" stroke-width="2"/>
<polygon points="784.0,400.0 683.8,426.2 632.0,400.0 683.8,373.8" fill="none" stroke="#F7FDFF" stroke-width="3"/>
<polygon points="769.0,400.0 690.4,412.6 651.0,400.0 690.4,387.4" fill="none" stroke="#437CFF" stroke-width="2"/>
<line x1="870.00" y1="143.00" x2="870.00" y2="119.00" stroke="#437CFF" stroke-width="3" opacity="0.9" stroke-linecap="square"/>
<line x1="886.81" y1="143.55" x2="887.33" y2="135.57" stroke="#F7FDFF" stroke-width="1.5" opacity="0.9" stroke-linecap="square"/>
<line x1="903.55" y1="145.20" x2="904.59" y2="137.27" stroke="#F7FDFF" stroke-width="1.5" opacity="0.9" stroke-linecap="square"/>
<line x1="920.14" y1="147.94" x2="921.70" y2="140.09" stroke="#00D9FF" stroke-width="1.5" opacity="0.9" stroke-linecap="square"/>
<line x1="968.35" y1="162.56" x2="971.41" y2="155.17" stroke="#437CFF" stroke-width="1.5" opacity="0.9" stroke-linecap="square"/>
<line x1="983.67" y1="169.50" x2="987.21" y2="162.33" stroke="#F7FDFF" stroke-width="1.5" opacity="0.9" stroke-linecap="square"/>
<line x1="998.50" y1="177.43" x2="1006.00" y2="164.44" stroke="#F7FDFF" stroke-width="1.5" opacity="0.9" stroke-linecap="square"/>
<line x1="1012.78" y1="186.31" x2="1017.23" y2="179.66" stroke="#00D9FF" stroke-width="1.5" opacity="0.9" stroke-linecap="square"/>
<line x1="1026.45" y1="196.11" x2="1031.32" y2="189.76" stroke="#F7FDFF" stroke-width="1.5" opacity="0.9" stroke-linecap="square"/>
<line x1="1039.45" y1="206.78" x2="1044.73" y2="200.76" stroke="#F7FDFF" stroke-width="1.5" opacity="0.9" stroke-linecap="square"/>
<line x1="1047.48" y1="222.52" x2="1064.45" y2="205.55" stroke="#437CFF" stroke-width="3" opacity="0.9" stroke-linecap="square"/>
<line x1="1058.71" y1="234.50" x2="1064.73" y2="229.23" stroke="#F7FDFF" stroke-width="1.5" opacity="0.9" stroke-linecap="square"/>
<line x1="1069.13" y1="247.20" x2="1075.48" y2="242.33" stroke="#F7FDFF" stroke-width="1.5" opacity="0.9" stroke-linecap="square"/>
<line x1="1078.70" y1="260.55" x2="1085.35" y2="256.11" stroke="#00D9FF" stroke-width="1.5" opacity="0.9" stroke-linecap="square"/>
<line x1="1101.89" y1="303.95" x2="1109.28" y2="300.88" stroke="#437CFF" stroke-width="1.5" opacity="0.9" stroke-linecap="square"/>
<line x1="1107.68" y1="319.32" x2="1115.25" y2="316.75" stroke="#F7FDFF" stroke-width="1.5" opacity="0.9" stroke-linecap="square"/>
<line x1="1112.45" y1="335.04" x2="1126.94" y2="331.15" stroke="#F7FDFF" stroke-width="1.5" opacity="0.9" stroke-linecap="square"/>
<line x1="1116.18" y1="351.03" x2="1124.02" y2="349.47" stroke="#00D9FF" stroke-width="1.5" opacity="0.9" stroke-linecap="square"/>
<line x1="1118.85" y1="367.24" x2="1126.78" y2="366.19" stroke="#F7FDFF" stroke-width="1.5" opacity="0.9" stroke-linecap="square"/>
<line x1="1120.46" y1="383.58" x2="1128.45" y2="383.06" stroke="#F7FDFF" stroke-width="1.5" opacity="0.9" stroke-linecap="square"/>
<line x1="1127.00" y1="400.00" x2="1151.00" y2="400.00" stroke="#437CFF" stroke-width="3" opacity="0.9" stroke-linecap="square"/>
<line x1="1126.45" y1="416.81" x2="1134.43" y2="417.33" stroke="#F7FDFF" stroke-width="1.5" opacity="0.9" stroke-linecap="square"/>
<line x1="1124.80" y1="433.55" x2="1132.73" y2="434.59" stroke="#F7FDFF" stroke-width="1.5" opacity="0.9" stroke-linecap="square"/>
<line x1="1122.06" y1="450.14" x2="1129.91" y2="451.70" stroke="#00D9FF" stroke-width="1.5" opacity="0.9" stroke-linecap="square"/>
<line x1="1107.44" y1="498.35" x2="1114.83" y2="501.41" stroke="#437CFF" stroke-width="1.5" opacity="0.9" stroke-linecap="square"/>
<line x1="1100.50" y1="513.67" x2="1107.67" y2="517.21" stroke="#F7FDFF" stroke-width="1.5" opacity="0.9" stroke-linecap="square"/>
<line x1="1092.57" y1="528.50" x2="1105.56" y2="536.00" stroke="#F7FDFF" stroke-width="1.5" opacity="0.9" stroke-linecap="square"/>
<line x1="1083.69" y1="542.78" x2="1090.34" y2="547.23" stroke="#00D9FF" stroke-width="1.5" opacity="0.9" stroke-linecap="square"/>
<line x1="1073.89" y1="556.45" x2="1080.24" y2="561.32" stroke="#F7FDFF" stroke-width="1.5" opacity="0.9" stroke-linecap="square"/>
<line x1="1063.22" y1="569.45" x2="1069.24" y2="574.73" stroke="#F7FDFF" stroke-width="1.5" opacity="0.9" stroke-linecap="square"/>
<line x1="1047.48" y1="577.48" x2="1064.45" y2="594.45" stroke="#437CFF" stroke-width="3" opacity="0.9" stroke-linecap="square"/>
<line x1="1035.50" y1="588.71" x2="1040.77" y2="594.73" stroke="#F7FDFF" stroke-width="1.5" opacity="0.9" stroke-linecap="square"/>
<line x1="1022.80" y1="599.13" x2="1027.67" y2="605.48" stroke="#F7FDFF" stroke-width="1.5" opacity="0.9" stroke-linecap="square"/>
<line x1="1009.45" y1="608.70" x2="1013.89" y2="615.35" stroke="#00D9FF" stroke-width="1.5" opacity="0.9" stroke-linecap="square"/>
<line x1="966.05" y1="631.89" x2="969.12" y2="639.28" stroke="#437CFF" stroke-width="1.5" opacity="0.9" stroke-linecap="square"/>
<line x1="950.68" y1="637.68" x2="953.25" y2="645.25" stroke="#F7FDFF" stroke-width="1.5" opacity="0.9" stroke-linecap="square"/>
<line x1="934.96" y1="642.45" x2="938.85" y2="656.94" stroke="#F7FDFF" stroke-width="1.5" opacity="0.9" stroke-linecap="square"/>
<line x1="918.97" y1="646.18" x2="920.53" y2="654.02" stroke="#00D9FF" stroke-width="1.5" opacity="0.9" stroke-linecap="square"/>
<line x1="902.76" y1="648.85" x2="903.81" y2="656.78" stroke="#F7FDFF" stroke-width="1.5" opacity="0.9" stroke-linecap="square"/>
<line x1="886.42" y1="650.46" x2="886.94" y2="658.45" stroke="#F7FDFF" stroke-width="1.5" opacity="0.9" stroke-linecap="square"/>
<line x1="870.00" y1="657.00" x2="870.00" y2="681.00" stroke="#437CFF" stroke-width="3" opacity="0.9" stroke-linecap="square"/>
<line x1="853.19" y1="656.45" x2="852.67" y2="664.43" stroke="#F7FDFF" stroke-width="1.5" opacity="0.9" stroke-linecap="square"/>
<line x1="836.45" y1="654.80" x2="835.41" y2="662.73" stroke="#F7FDFF" stroke-width="1.5" opacity="0.9" stroke-linecap="square"/>
<line x1="819.86" y1="652.06" x2="818.30" y2="659.91" stroke="#00D9FF" stroke-width="1.5" opacity="0.9" stroke-linecap="square"/>
<line x1="771.65" y1="637.44" x2="768.59" y2="644.83" stroke="#437CFF" stroke-width="1.5" opacity="0.9" stroke-linecap="square"/>
<line x1="756.33" y1="630.50" x2="752.79" y2="637.67" stroke="#F7FDFF" stroke-width="1.5" opacity="0.9" stroke-linecap="square"/>
<line x1="741.50" y1="622.57" x2="734.00" y2="635.56" stroke="#F7FDFF" stroke-width="1.5" opacity="0.9" stroke-linecap="square"/>
<line x1="727.22" y1="613.69" x2="722.77" y2="620.34" stroke="#00D9FF" stroke-width="1.5" opacity="0.9" stroke-linecap="square"/>
<line x1="713.55" y1="603.89" x2="708.68" y2="610.24" stroke="#F7FDFF" stroke-width="1.5" opacity="0.9" stroke-linecap="square"/>
<line x1="700.55" y1="593.22" x2="695.27" y2="599.24" stroke="#F7FDFF" stroke-width="1.5" opacity="0.9" stroke-linecap="square"/>
<line x1="692.52" y1="577.48" x2="675.55" y2="594.45" stroke="#437CFF" stroke-width="3" opacity="0.9" stroke-linecap="square"/>
<line x1="681.29" y1="565.50" x2="675.27" y2="570.77" stroke="#F7FDFF" stroke-width="1.5" opacity="0.9" stroke-linecap="square"/>
<line x1="670.87" y1="552.80" x2="664.52" y2="557.67" stroke="#F7FDFF" stroke-width="1.5" opacity="0.9" stroke-linecap="square"/>
<line x1="661.30" y1="539.45" x2="654.65" y2="543.89" stroke="#00D9FF" stroke-width="1.5" opacity="0.9" stroke-linecap="square"/>
<line x1="638.11" y1="496.05" x2="630.72" y2="499.12" stroke="#437CFF" stroke-width="1.5" opacity="0.9" stroke-linecap="square"/>
<line x1="632.32" y1="480.68" x2="624.75" y2="483.25" stroke="#F7FDFF" stroke-width="1.5" opacity="0.9" stroke-linecap="square"/>
<line x1="627.55" y1="464.96" x2="613.06" y2="468.85" stroke="#F7FDFF" stroke-width="1.5" opacity="0.9" stroke-linecap="square"/>
<line x1="623.82" y1="448.97" x2="615.98" y2="450.53" stroke="#00D9FF" stroke-width="1.5" opacity="0.9" stroke-linecap="square"/>
<line x1="621.15" y1="432.76" x2="613.22" y2="433.81" stroke="#F7FDFF" stroke-width="1.5" opacity="0.9" stroke-linecap="square"/>
<line x1="619.54" y1="416.42" x2="611.55" y2="416.94" stroke="#F7FDFF" stroke-width="1.5" opacity="0.9" stroke-linecap="square"/>
<line x1="613.00" y1="400.00" x2="589.00" y2="400.00" stroke="#437CFF" stroke-width="3" opacity="0.9" stroke-linecap="square"/>
<line x1="613.55" y1="383.19" x2="605.57" y2="382.67" stroke="#F7FDFF" stroke-width="1.5" opacity="0.9" stroke-linecap="square"/>
<line x1="615.20" y1="366.45" x2="607.27" y2="365.41" stroke="#F7FDFF" stroke-width="1.5" opacity="0.9" stroke-linecap="square"/>
<line x1="617.94" y1="349.86" x2="610.09" y2="348.30" stroke="#00D9FF" stroke-width="1.5" opacity="0.9" stroke-linecap="square"/>
<line x1="632.56" y1="301.65" x2="625.17" y2="298.59" stroke="#437CFF" stroke-width="1.5" opacity="0.9" stroke-linecap="square"/>
<line x1="639.50" y1="286.33" x2="632.33" y2="282.79" stroke="#F7FDFF" stroke-width="1.5" opacity="0.9" stroke-linecap="square"/>
<line x1="647.43" y1="271.50" x2="634.44" y2="264.00" stroke="#F7FDFF" stroke-width="1.5" opacity="0.9" stroke-linecap="square"/>
<line x1="656.31" y1="257.22" x2="649.66" y2="252.77" stroke="#00D9FF" stroke-width="1.5" opacity="0.9" stroke-linecap="square"/>
<line x1="666.11" y1="243.55" x2="659.76" y2="238.68" stroke="#F7FDFF" stroke-width="1.5" opacity="0.9" stroke-linecap="square"/>
<line x1="676.78" y1="230.55" x2="670.76" y2="225.27" stroke="#F7FDFF" stroke-width="1.5" opacity="0.9" stroke-linecap="square"/>
<line x1="692.52" y1="222.52" x2="675.55" y2="205.55" stroke="#437CFF" stroke-width="3" opacity="0.9" stroke-linecap="square"/>
<line x1="704.50" y1="211.29" x2="699.23" y2="205.27" stroke="#F7FDFF" stroke-width="1.5" opacity="0.9" stroke-linecap="square"/>
<line x1="717.20" y1="200.87" x2="712.33" y2="194.52" stroke="#F7FDFF" stroke-width="1.5" opacity="0.9" stroke-linecap="square"/>
<line x1="730.55" y1="191.30" x2="726.11" y2="184.65" stroke="#00D9FF" stroke-width="1.5" opacity="0.9" stroke-linecap="square"/>
<line x1="773.95" y1="168.11" x2="770.88" y2="160.72" stroke="#437CFF" stroke-width="1.5" opacity="0.9" stroke-linecap="square"/>
<line x1="789.32" y1="162.32" x2="786.75" y2="154.75" stroke="#F7FDFF" stroke-width="1.5" opacity="0.9" stroke-linecap="square"/>
<line x1="805.04" y1="157.55" x2="801.15" y2="143.06" stroke="#F7FDFF" stroke-width="1.5" opacity="0.9" stroke-linecap="square"/>
<line x1="821.03" y1="153.82" x2="819.47" y2="145.98" stroke="#00D9FF" stroke-width="1.5" opacity="0.9" stroke-linecap="square"/>
<line x1="837.24" y1="151.15" x2="836.19" y2="143.22" stroke="#F7FDFF" stroke-width="1.5" opacity="0.9" stroke-linecap="square"/>
<line x1="853.58" y1="149.54" x2="853.06" y2="141.55" stroke="#F7FDFF" stroke-width="1.5" opacity="0.9" stroke-linecap="square"/>
<path d="M888.3,251.1 L908.5,245.7 A159,159 0 0 1 958.9,268.2" fill="none" stroke="#F7FDFF" stroke-width="1.2" opacity=".88"/>
<rect x="955.9" y="265.2" width="6" height="6" fill="#F7FDFF" transform="rotate(45 958.9 268.2)"/>
<path d="M893.1,239.7 L914.8,235.0 A171,171 0 0 1 963.6,256.9" fill="none" stroke="#00D9FF" stroke-width="2.2" opacity=".88"/>
<rect x="960.6" y="253.9" width="6" height="6" fill="#00D9FF" transform="rotate(45 963.6 256.9)"/>
<path d="M898.4,228.3 L921.7,224.4 A183,183 0 0 1 968.1,245.5" fill="none" stroke="#437CFF" stroke-width="1.2" opacity=".88"/>
<rect x="965.1" y="242.5" width="6" height="6" fill="#437CFF" transform="rotate(45 968.1 245.5)"/>
<path d="M904.2,217.2 L929.0,214.1 A195,195 0 0 1 972.2,233.9" fill="none" stroke="#F7FDFF" stroke-width="2.2" opacity=".88"/>
<rect x="969.2" y="230.9" width="6" height="6" fill="#F7FDFF" transform="rotate(45 972.2 233.9)"/>
<path d="M910.5,206.2 L936.7,204.0 A207,207 0 0 1 976.0,222.2" fill="none" stroke="#8D56FF" stroke-width="1.2" opacity=".88"/>
<rect x="973.0" y="219.2" width="6" height="6" fill="#8D56FF" transform="rotate(45 976.0 222.2)"/>
<path d="M988.2,307.7 L1006.3,318.1 A159,159 0 0 1 1026.1,369.7" fill="none" stroke="#F7FDFF" stroke-width="1.2" opacity=".88"/>
<rect x="1023.1" y="366.7" width="6" height="6" fill="#F7FDFF" transform="rotate(45 1026.1 369.7)"/>
<path d="M999.7,303.0 L1018.4,315.0 A171,171 0 0 1 1037.4,365.0" fill="none" stroke="#00D9FF" stroke-width="2.2" opacity=".88"/>
<rect x="1034.4" y="362.0" width="6" height="6" fill="#00D9FF" transform="rotate(45 1037.4 365.0)"/>
<path d="M1011.5,298.7 L1030.7,312.4 A183,183 0 0 1 1048.6,360.1" fill="none" stroke="#437CFF" stroke-width="1.2" opacity=".88"/>
<rect x="1045.6" y="357.1" width="6" height="6" fill="#437CFF" transform="rotate(45 1048.6 360.1)"/>
<path d="M1023.5,294.9 L1043.1,310.3 A195,195 0 0 1 1059.7,354.8" fill="none" stroke="#F7FDFF" stroke-width="2.2" opacity=".88"/>
<rect x="1056.7" y="351.8" width="6" height="6" fill="#F7FDFF" transform="rotate(45 1059.7 354.8)"/>
<path d="M1035.7,291.6 L1055.7,308.6 A207,207 0 0 1 1070.7,349.2" fill="none" stroke="#8D56FF" stroke-width="1.2" opacity=".88"/>
<rect x="1067.7" y="346.2" width="6" height="6" fill="#8D56FF" transform="rotate(45 1070.7 349.2)"/>
<path d="M1018.9,418.3 L1024.3,438.5 A159,159 0 0 1 1001.8,488.9" fill="none" stroke="#F7FDFF" stroke-width="1.2" opacity=".88"/>
<rect x="998.8" y="485.9" width="6" height="6" fill="#F7FDFF" transform="rotate(45 1001.8 488.9)"/>
<path d="M1030.3,423.1 L1035.0,444.8 A171,171 0 0 1 1013.1,493.6" fill="none" stroke="#00D9FF" stroke-width="2.2" opacity=".88"/>
<rect x="1010.1" y="490.6" width="6" height="6" fill="#00D9FF" transform="rotate(45 1013.1 493.6)"/>
<path d="M1041.7,428.4 L1045.6,451.7 A183,183 0 0 1 1024.5,498.1" fill="none" stroke="#437CFF" stroke-width="1.2" opacity=".88"/>
<rect x="1021.5" y="495.1" width="6" height="6" fill="#437CFF" transform="rotate(45 1024.5 498.1)"/>
<path d="M1052.8,434.2 L1055.9,459.0 A195,195 0 0 1 1036.1,502.2" fill="none" stroke="#F7FDFF" stroke-width="2.2" opacity=".88"/>
<rect x="1033.1" y="499.2" width="6" height="6" fill="#F7FDFF" transform="rotate(45 1036.1 502.2)"/>
<path d="M1063.8,440.5 L1066.0,466.7 A207,207 0 0 1 1047.8,506.0" fill="none" stroke="#8D56FF" stroke-width="1.2" opacity=".88"/>
<rect x="1044.8" y="503.0" width="6" height="6" fill="#8D56FF" transform="rotate(45 1047.8 506.0)"/>
<path d="M962.3,518.2 L951.9,536.3 A159,159 0 0 1 900.3,556.1" fill="none" stroke="#F7FDFF" stroke-width="1.2" opacity=".88"/>
<rect x="897.3" y="553.1" width="6" height="6" fill="#F7FDFF" transform="rotate(45 900.3 556.1)"/>
<path d="M967.0,529.7 L955.0,548.4 A171,171 0 0 1 905.0,567.4" fill="none" stroke="#00D9FF" stroke-width="2.2" opacity=".88"/>
<rect x="902.0" y="564.4" width="6" height="6" fill="#00D9FF" transform="rotate(45 905.0 567.4)"/>
<path d="M971.3,541.5 L957.6,560.7 A183,183 0 0 1 909.9,578.6" fill="none" stroke="#437CFF" stroke-width="1.2" opacity=".88"/>
<rect x="906.9" y="575.6" width="6" height="6" fill="#437CFF" transform="rotate(45 909.9 578.6)"/>
<path d="M975.1,553.5 L959.7,573.1 A195,195 0 0 1 915.2,589.7" fill="none" stroke="#F7FDFF" stroke-width="2.2" opacity=".88"/>
<rect x="912.2" y="586.7" width="6" height="6" fill="#F7FDFF" transform="rotate(45 915.2 589.7)"/>
<path d="M978.4,565.7 L961.4,585.7 A207,207 0 0 1 920.8,600.7" fill="none" stroke="#8D56FF" stroke-width="1.2" opacity=".88"/>
<rect x="917.8" y="597.7" width="6" height="6" fill="#8D56FF" transform="rotate(45 920.8 600.7)"/>
<path d="M851.7,548.9 L831.5,554.3 A159,159 0 0 1 781.1,531.8" fill="none" stroke="#F7FDFF" stroke-width="1.2" opacity=".88"/>
<rect x="778.1" y="528.8" width="6" height="6" fill="#F7FDFF" transform="rotate(45 781.1 531.8)"/>
<path d="M846.9,560.3 L825.2,565.0 A171,171 0 0 1 776.4,543.1" fill="none" stroke="#00D9FF" stroke-width="2.2" opacity=".88"/>
<rect x="773.4" y="540.1" width="6" height="6" fill="#00D9FF" transform="rotate(45 776.4 543.1)"/>
<path d="M841.6,571.7 L818.3,575.6 A183,183 0 0 1 771.9,554.5" fill="none" stroke="#437CFF" stroke-width="1.2" opacity=".88"/>
<rect x="768.9" y="551.5" width="6" height="6" fill="#437CFF" transform="rotate(45 771.9 554.5)"/>
<path d="M835.8,582.8 L811.0,585.9 A195,195 0 0 1 767.8,566.1" fill="none" stroke="#F7FDFF" stroke-width="2.2" opacity=".88"/>
<rect x="764.8" y="563.1" width="6" height="6" fill="#F7FDFF" transform="rotate(45 767.8 566.1)"/>
<path d="M829.5,593.8 L803.3,596.0 A207,207 0 0 1 764.0,577.8" fill="none" stroke="#8D56FF" stroke-width="1.2" opacity=".88"/>
<rect x="761.0" y="574.8" width="6" height="6" fill="#8D56FF" transform="rotate(45 764.0 577.8)"/>
<path d="M751.8,492.3 L733.7,481.9 A159,159 0 0 1 713.9,430.3" fill="none" stroke="#F7FDFF" stroke-width="1.2" opacity=".88"/>
<rect x="710.9" y="427.3" width="6" height="6" fill="#F7FDFF" transform="rotate(45 713.9 430.3)"/>
<path d="M740.3,497.0 L721.6,485.0 A171,171 0 0 1 702.6,435.0" fill="none" stroke="#00D9FF" stroke-width="2.2" opacity=".88"/>
<rect x="699.6" y="432.0" width="6" height="6" fill="#00D9FF" transform="rotate(45 702.6 435.0)"/>
<path d="M728.5,501.3 L709.3,487.6 A183,183 0 0 1 691.4,439.9" fill="none" stroke="#437CFF" stroke-width="1.2" opacity=".88"/>
<rect x="688.4" y="436.9" width="6" height="6" fill="#437CFF" transform="rotate(45 691.4 439.9)"/>
<path d="M716.5,505.1 L696.9,489.7 A195,195 0 0 1 680.3,445.2" fill="none" stroke="#F7FDFF" stroke-width="2.2" opacity=".88"/>
<rect x="677.3" y="442.2" width="6" height="6" fill="#F7FDFF" transform="rotate(45 680.3 445.2)"/>
<path d="M704.3,508.4 L684.3,491.4 A207,207 0 0 1 669.3,450.8" fill="none" stroke="#8D56FF" stroke-width="1.2" opacity=".88"/>
<rect x="666.3" y="447.8" width="6" height="6" fill="#8D56FF" transform="rotate(45 669.3 450.8)"/>
<path d="M721.1,381.7 L715.7,361.5 A159,159 0 0 1 738.2,311.1" fill="none" stroke="#F7FDFF" stroke-width="1.2" opacity=".88"/>
<rect x="735.2" y="308.1" width="6" height="6" fill="#F7FDFF" transform="rotate(45 738.2 311.1)"/>
<path d="M709.7,376.9 L705.0,355.2 A171,171 0 0 1 726.9,306.4" fill="none" stroke="#00D9FF" stroke-width="2.2" opacity=".88"/>
<rect x="723.9" y="303.4" width="6" height="6" fill="#00D9FF" transform="rotate(45 726.9 306.4)"/>
<path d="M698.3,371.6 L694.4,348.3 A183,183 0 0 1 715.5,301.9" fill="none" stroke="#437CFF" stroke-width="1.2" opacity=".88"/>
<rect x="712.5" y="298.9" width="6" height="6" fill="#437CFF" transform="rotate(45 715.5 301.9)"/>
<path d="M687.2,365.8 L684.1,341.0 A195,195 0 0 1 703.9,297.8" fill="none" stroke="#F7FDFF" stroke-width="2.2" opacity=".88"/>
<rect x="700.9" y="294.8" width="6" height="6" fill="#F7FDFF" transform="rotate(45 703.9 297.8)"/>
<path d="M676.2,359.5 L674.0,333.3 A207,207 0 0 1 692.2,294.0" fill="none" stroke="#8D56FF" stroke-width="1.2" opacity=".88"/>
<rect x="689.2" y="291.0" width="6" height="6" fill="#8D56FF" transform="rotate(45 692.2 294.0)"/>
<path d="M777.7,281.8 L788.1,263.7 A159,159 0 0 1 839.7,243.9" fill="none" stroke="#F7FDFF" stroke-width="1.2" opacity=".88"/>
<rect x="836.7" y="240.9" width="6" height="6" fill="#F7FDFF" transform="rotate(45 839.7 243.9)"/>
<path d="M773.0,270.3 L785.0,251.6 A171,171 0 0 1 835.0,232.6" fill="none" stroke="#00D9FF" stroke-width="2.2" opacity=".88"/>
<rect x="832.0" y="229.6" width="6" height="6" fill="#00D9FF" transform="rotate(45 835.0 232.6)"/>
<path d="M768.7,258.5 L782.4,239.3 A183,183 0 0 1 830.1,221.4" fill="none" stroke="#437CFF" stroke-width="1.2" opacity=".88"/>
<rect x="827.1" y="218.4" width="6" height="6" fill="#437CFF" transform="rotate(45 830.1 221.4)"/>
<path d="M764.9,246.5 L780.3,226.9 A195,195 0 0 1 824.8,210.3" fill="none" stroke="#F7FDFF" stroke-width="2.2" opacity=".88"/>
<rect x="821.8" y="207.3" width="6" height="6" fill="#F7FDFF" transform="rotate(45 824.8 210.3)"/>
<path d="M761.6,234.3 L778.6,214.3 A207,207 0 0 1 819.2,199.3" fill="none" stroke="#8D56FF" stroke-width="1.2" opacity=".88"/>
<rect x="816.2" y="196.3" width="6" height="6" fill="#8D56FF" transform="rotate(45 819.2 199.3)"/>
<polyline points="852.3,197.8 851.3,185.8 888.7,185.8 887.7,197.8" fill="none" stroke="#00D9FF" stroke-width="1.5" opacity=".85"/>
<polyline points="843.9,187.6 842.5,175.7 897.5,175.7 896.1,187.6" fill="none" stroke="#F7FDFF" stroke-width="1.5" opacity=".85"/>
<polyline points="834.8,177.8 832.9,165.9 907.1,165.9 905.2,177.8" fill="none" stroke="#437CFF" stroke-width="1.5" opacity=".85"/>
<polyline points="825.0,168.3 822.7,156.6 917.3,156.6 915.0,168.3" fill="none" stroke="#00D9FF" stroke-width="2.5" opacity=".85"/>
<polyline points="1000.5,244.5 1008.2,235.3 1034.7,261.8 1025.5,269.5" fill="none" stroke="#437CFF" stroke-width="1.5" opacity=".85"/>
<polyline points="1001.8,231.4 1009.1,221.9 1048.1,260.9 1038.6,268.2" fill="none" stroke="#F7FDFF" stroke-width="1.5" opacity=".85"/>
<polyline points="1002.3,218.0 1009.3,208.3 1061.7,260.7 1052.0,267.7" fill="none" stroke="#00D9FF" stroke-width="1.5" opacity=".85"/>
<polyline points="1002.0,204.3 1008.7,194.4 1075.6,261.3 1065.7,268.0" fill="none" stroke="#F7FDFF" stroke-width="2.5" opacity=".85"/>
<polyline points="1072.2,382.3 1084.2,381.3 1084.2,418.7 1072.2,417.7" fill="none" stroke="#437CFF" stroke-width="1.5" opacity=".85"/>
<polyline points="1082.4,373.9 1094.3,372.5 1094.3,427.5 1082.4,426.1" fill="none" stroke="#00D9FF" stroke-width="1.5" opacity=".85"/>
<polyline points="1092.2,364.8 1104.1,362.9 1104.1,437.1 1092.2,435.2" fill="none" stroke="#437CFF" stroke-width="1.5" opacity=".85"/>
<polyline points="1101.7,355.0 1113.4,352.7 1113.4,447.3 1101.7,445.0" fill="none" stroke="#F7FDFF" stroke-width="2.5" opacity=".85"/>
<polyline points="1025.5,530.5 1034.7,538.2 1008.2,564.7 1000.5,555.5" fill="none" stroke="#00D9FF" stroke-width="1.5" opacity=".85"/>
<polyline points="1038.6,531.8 1048.1,539.1 1009.1,578.1 1001.8,568.6" fill="none" stroke="#F7FDFF" stroke-width="1.5" opacity=".85"/>
<polyline points="1052.0,532.3 1061.7,539.3 1009.3,591.7 1002.3,582.0" fill="none" stroke="#437CFF" stroke-width="1.5" opacity=".85"/>
<polyline points="1065.7,532.0 1075.6,538.7 1008.7,605.6 1002.0,595.7" fill="none" stroke="#00D9FF" stroke-width="2.5" opacity=".85"/>
<polyline points="887.7,602.2 888.7,614.2 851.3,614.2 852.3,602.2" fill="none" stroke="#437CFF" stroke-width="1.5" opacity=".85"/>
<polyline points="896.1,612.4 897.5,624.3 842.5,624.3 843.9,612.4" fill="none" stroke="#F7FDFF" stroke-width="1.5" opacity=".85"/>
<polyline points="905.2,622.2 907.1,634.1 832.9,634.1 834.8,622.2" fill="none" stroke="#00D9FF" stroke-width="1.5" opacity=".85"/>
<polyline points="915.0,631.7 917.3,643.4 822.7,643.4 825.0,631.7" fill="none" stroke="#F7FDFF" stroke-width="2.5" opacity=".85"/>
<polyline points="739.5,555.5 731.8,564.7 705.3,538.2 714.5,530.5" fill="none" stroke="#437CFF" stroke-width="1.5" opacity=".85"/>
<polyline points="738.2,568.6 730.9,578.1 691.9,539.1 701.4,531.8" fill="none" stroke="#00D9FF" stroke-width="1.5" opacity=".85"/>
<polyline points="737.7,582.0 730.7,591.7 678.3,539.3 688.0,532.3" fill="none" stroke="#437CFF" stroke-width="1.5" opacity=".85"/>
<polyline points="738.0,595.7 731.3,605.6 664.4,538.7 674.3,532.0" fill="none" stroke="#F7FDFF" stroke-width="2.5" opacity=".85"/>
<polyline points="667.8,417.7 655.8,418.7 655.8,381.3 667.8,382.3" fill="none" stroke="#00D9FF" stroke-width="1.5" opacity=".85"/>
<polyline points="657.6,426.1 645.7,427.5 645.7,372.5 657.6,373.9" fill="none" stroke="#F7FDFF" stroke-width="1.5" opacity=".85"/>
<polyline points="647.8,435.2 635.9,437.1 635.9,362.9 647.8,364.8" fill="none" stroke="#437CFF" stroke-width="1.5" opacity=".85"/>
<polyline points="638.3,445.0 626.6,447.3 626.6,352.7 638.3,355.0" fill="none" stroke="#00D9FF" stroke-width="2.5" opacity=".85"/>
<polyline points="714.5,269.5 705.3,261.8 731.8,235.3 739.5,244.5" fill="none" stroke="#437CFF" stroke-width="1.5" opacity=".85"/>
<polyline points="701.4,268.2 691.9,260.9 730.9,221.9 738.2,231.4" fill="none" stroke="#F7FDFF" stroke-width="1.5" opacity=".85"/>
<polyline points="688.0,267.7 678.3,260.7 730.7,208.3 737.7,218.0" fill="none" stroke="#00D9FF" stroke-width="1.5" opacity=".85"/>
<polyline points="674.3,268.0 664.4,261.3 731.3,194.4 738.0,204.3" fill="none" stroke="#F7FDFF" stroke-width="2.5" opacity=".85"/>
<line x1="894.33" y1="309.20" x2="898.21" y2="294.71" stroke="#F7FDFF" stroke-width="1" opacity="0.9" stroke-linecap="square"/>
<line x1="905.97" y1="313.16" x2="912.86" y2="296.53" stroke="#F7FDFF" stroke-width="1" opacity="0.9" stroke-linecap="square"/>
<line x1="917.00" y1="318.59" x2="921.50" y2="310.80" stroke="#F7FDFF" stroke-width="1" opacity="0.9" stroke-linecap="square"/>
<line x1="927.22" y1="325.42" x2="934.53" y2="315.90" stroke="#00D9FF" stroke-width="1" opacity="0.9" stroke-linecap="square"/>
<line x1="936.47" y1="333.53" x2="947.07" y2="322.93" stroke="#F7FDFF" stroke-width="2" opacity="0.9" stroke-linecap="square"/>
<line x1="944.58" y1="342.78" x2="958.86" y2="331.82" stroke="#F7FDFF" stroke-width="1" opacity="0.9" stroke-linecap="square"/>
<line x1="951.41" y1="353.00" x2="959.20" y2="348.50" stroke="#F7FDFF" stroke-width="1" opacity="0.9" stroke-linecap="square"/>
<line x1="963.20" y1="387.73" x2="981.04" y2="385.38" stroke="#F7FDFF" stroke-width="1" opacity="0.9" stroke-linecap="square"/>
<line x1="964.00" y1="400.00" x2="973.00" y2="400.00" stroke="#F7FDFF" stroke-width="2" opacity="0.9" stroke-linecap="square"/>
<line x1="963.20" y1="412.27" x2="975.09" y2="413.84" stroke="#F7FDFF" stroke-width="1" opacity="0.9" stroke-linecap="square"/>
<line x1="960.80" y1="424.33" x2="975.29" y2="428.21" stroke="#F7FDFF" stroke-width="1" opacity="0.9" stroke-linecap="square"/>
<line x1="956.84" y1="435.97" x2="973.47" y2="442.86" stroke="#00D9FF" stroke-width="1" opacity="0.9" stroke-linecap="square"/>
<line x1="951.41" y1="447.00" x2="959.20" y2="451.50" stroke="#F7FDFF" stroke-width="1" opacity="0.9" stroke-linecap="square"/>
<line x1="944.58" y1="457.22" x2="954.10" y2="464.53" stroke="#F7FDFF" stroke-width="1" opacity="0.9" stroke-linecap="square"/>
<line x1="917.00" y1="481.41" x2="921.50" y2="489.20" stroke="#00D9FF" stroke-width="1" opacity="0.9" stroke-linecap="square"/>
<line x1="905.97" y1="486.84" x2="910.56" y2="497.93" stroke="#F7FDFF" stroke-width="1" opacity="0.9" stroke-linecap="square"/>
<line x1="894.33" y1="490.80" x2="898.21" y2="505.29" stroke="#F7FDFF" stroke-width="1" opacity="0.9" stroke-linecap="square"/>
<line x1="882.27" y1="493.20" x2="884.62" y2="511.04" stroke="#F7FDFF" stroke-width="1" opacity="0.9" stroke-linecap="square"/>
<line x1="870.00" y1="494.00" x2="870.00" y2="503.00" stroke="#F7FDFF" stroke-width="2" opacity="0.9" stroke-linecap="square"/>
<line x1="857.73" y1="493.20" x2="856.16" y2="505.09" stroke="#00D9FF" stroke-width="1" opacity="0.9" stroke-linecap="square"/>
<line x1="845.67" y1="490.80" x2="841.79" y2="505.29" stroke="#F7FDFF" stroke-width="1" opacity="0.9" stroke-linecap="square"/>
<line x1="812.78" y1="474.58" x2="805.47" y2="484.10" stroke="#F7FDFF" stroke-width="1" opacity="0.9" stroke-linecap="square"/>
<line x1="803.53" y1="466.47" x2="792.93" y2="477.07" stroke="#00D9FF" stroke-width="2" opacity="0.9" stroke-linecap="square"/>
<line x1="795.42" y1="457.22" x2="781.14" y2="468.18" stroke="#F7FDFF" stroke-width="1" opacity="0.9" stroke-linecap="square"/>
<line x1="788.59" y1="447.00" x2="780.80" y2="451.50" stroke="#F7FDFF" stroke-width="1" opacity="0.9" stroke-linecap="square"/>
<line x1="783.16" y1="435.97" x2="772.07" y2="440.56" stroke="#F7FDFF" stroke-width="1" opacity="0.9" stroke-linecap="square"/>
<line x1="779.20" y1="424.33" x2="764.71" y2="428.21" stroke="#F7FDFF" stroke-width="1" opacity="0.9" stroke-linecap="square"/>
<line x1="776.80" y1="412.27" x2="758.96" y2="414.62" stroke="#00D9FF" stroke-width="1" opacity="0.9" stroke-linecap="square"/>
<line x1="779.20" y1="375.67" x2="764.71" y2="371.79" stroke="#F7FDFF" stroke-width="1" opacity="0.9" stroke-linecap="square"/>
<line x1="783.16" y1="364.03" x2="766.53" y2="357.14" stroke="#F7FDFF" stroke-width="1" opacity="0.9" stroke-linecap="square"/>
<line x1="788.59" y1="353.00" x2="780.80" y2="348.50" stroke="#00D9FF" stroke-width="1" opacity="0.9" stroke-linecap="square"/>
<line x1="795.42" y1="342.78" x2="785.90" y2="335.47" stroke="#F7FDFF" stroke-width="1" opacity="0.9" stroke-linecap="square"/>
<line x1="803.53" y1="333.53" x2="792.93" y2="322.93" stroke="#F7FDFF" stroke-width="2" opacity="0.9" stroke-linecap="square"/>
<line x1="812.78" y1="325.42" x2="801.82" y2="311.14" stroke="#F7FDFF" stroke-width="1" opacity="0.9" stroke-linecap="square"/>
<line x1="823.00" y1="318.59" x2="818.50" y2="310.80" stroke="#F7FDFF" stroke-width="1" opacity="0.9" stroke-linecap="square"/>
<line x1="857.73" y1="306.80" x2="855.38" y2="288.96" stroke="#F7FDFF" stroke-width="1" opacity="0.9" stroke-linecap="square"/>
<rect x="958.9" y="295.1" width="16" height="16" fill="none" stroke="#437CFF" stroke-width="3" transform="rotate(45 966.9 303.1)"/>
<rect x="958.9" y="488.9" width="16" height="16" fill="none" stroke="#437CFF" stroke-width="3" transform="rotate(45 966.9 496.9)"/>
<rect x="765.1" y="488.9" width="16" height="16" fill="none" stroke="#437CFF" stroke-width="3" transform="rotate(45 773.1 496.9)"/>
<rect x="765.1" y="295.1" width="16" height="16" fill="none" stroke="#437CFF" stroke-width="3" transform="rotate(45 773.1 303.1)"/>
<circle cx="870" cy="400" r="88" fill="none" stroke="#F7FDFF" stroke-width="5"/>
<circle cx="870" cy="400" r="78" fill="none" stroke="#00D9FF" stroke-width="3" stroke-dasharray="42 12 8 10"/>
<circle cx="870" cy="400" r="68" fill="none" stroke="#437CFF" stroke-width="1.5" stroke-dasharray="16 7"/>
<text x="870" y="429" text-anchor="middle" font-family="Arial, sans-serif" font-weight="900" font-size="88" fill="#F7FDFF" stroke="#00D9FF" stroke-width="2">R</text>
</g>
</svg>